<?xml version="1.0" encoding="UTF-8" standalone="no"?>
<svg
   x="0"
   y="0"
   width="457.81497"
   height="111.39999"
   style="fill:none"
   version="1.1"
   id="svg934"
   sodipodi:docname="trace_dense.svg"
   inkscape:version="1.1 (c68e22c387, 2021-05-23)"
   xmlns:inkscape="http://www.inkscape.org/namespaces/inkscape"
   xmlns:sodipodi="http://sodipodi.sourceforge.net/DTD/sodipodi-0.dtd"
   xmlns="http://www.w3.org/2000/svg"
   xmlns:svg="http://www.w3.org/2000/svg">
  <defs
     id="defs938">
    <defs
       id="defs312">
      <clipPath
         id="cp0stku122u">
        <rect
           x="1"
           y="1"
           width="438"
           height="68"
           id="rect309" />
      </clipPath>
    </defs>
  </defs>
  <sodipodi:namedview
     id="namedview936"
     pagecolor="#ffffff"
     bordercolor="#666666"
     borderopacity="1.0"
     inkscape:pageshadow="2"
     inkscape:pageopacity="0.0"
     inkscape:pagecheckerboard="0"
     showgrid="false"
     inkscape:zoom="1.0786398"
     inkscape:cx="273.49261"
     inkscape:cy="128.40246"
     inkscape:window-width="1920"
     inkscape:window-height="1001"
     inkscape:window-x="-9"
     inkscape:window-y="-9"
     inkscape:window-maximized="1"
     inkscape:current-layer="svg934"
     fit-margin-top="0"
     fit-margin-left="0"
     fit-margin-right="0"
     fit-margin-bottom="0" />
  <g
     id="g358"
     style="font-family:Asana-Math, Asana"
     transform="translate(-57.185024,-399.5)">
    <g
       id="g356">
      <g
         id="g354">
        <g
           id="g352">
          <g
             transform="translate(-546.20001,212.9625)"
             id="g350">
            <path
               transform="scale(0.0119,-0.0119)"
               d=""
               stroke="#000000"
               stroke-opacity="1"
               stroke-width="8"
               fill="#000000"
               fill-opacity="1"
               id="path348" />
          </g>
        </g>
      </g>
    </g>
  </g>
  <g
     id="g398"
     style="font-family:Asana-Math, Asana"
     transform="translate(-57.185024,-399.5)">
    <g
       id="g396">
      <g
         id="g394">
        <g
           id="g392">
          <g
             transform="translate(-546.20001,212.9625)"
             id="g390">
            <path
               transform="scale(0.0119,-0.0119)"
               d=""
               stroke="#000000"
               stroke-opacity="1"
               stroke-width="8"
               fill="#000000"
               fill-opacity="1"
               id="path388" />
          </g>
        </g>
      </g>
    </g>
  </g>
  <g
     id="g438"
     style="font-family:Asana-Math, Asana"
     transform="translate(-57.185024,-399.5)">
    <g
       id="g436">
      <g
         id="g434">
        <g
           id="g432">
          <g
             transform="translate(-546.20001,274.51251)"
             id="g430">
            <path
               transform="scale(0.0119,-0.0119)"
               d=""
               stroke="#000000"
               stroke-opacity="1"
               stroke-width="8"
               fill="#000000"
               fill-opacity="1"
               id="path428" />
          </g>
        </g>
      </g>
    </g>
  </g>
  <g
     id="g516"
     style="font-family:Asana-Math, Asana"
     transform="translate(-57.185024,-399.5)">
    <g
       id="g514">
      <g
         id="g512">
        <g
           id="g510">
          <g
             transform="translate(-546.20001,42.962504)"
             id="g508">
            <path
               transform="scale(0.0119,-0.0119)"
               d=""
               stroke="#000000"
               stroke-opacity="1"
               stroke-width="8"
               fill="#000000"
               fill-opacity="1"
               id="path506" />
          </g>
        </g>
      </g>
    </g>
  </g>
  <g
     id="g556"
     style="font-family:Asana-Math, Asana"
     transform="translate(-57.185024,-399.5)">
    <g
       id="g554">
      <g
         id="g552">
        <g
           id="g550">
          <g
             transform="translate(-546.20001,42.962504)"
             id="g548">
            <path
               transform="scale(0.0119,-0.0119)"
               d=""
               stroke="#000000"
               stroke-opacity="1"
               stroke-width="8"
               fill="#000000"
               fill-opacity="1"
               id="path546" />
          </g>
        </g>
      </g>
    </g>
  </g>
  <g
     id="g596"
     style="font-family:Asana-Math, Asana"
     transform="translate(-57.185024,-399.5)">
    <g
       id="g594">
      <g
         id="g592">
        <g
           id="g590">
          <g
             transform="translate(-546.20001,42.962504)"
             id="g588">
            <path
               transform="scale(0.0119,-0.0119)"
               d=""
               stroke="#000000"
               stroke-opacity="1"
               stroke-width="8"
               fill="#000000"
               fill-opacity="1"
               id="path586" />
          </g>
        </g>
      </g>
    </g>
  </g>
  <g
     id="g636"
     style="font-family:Asana-Math, Asana"
     transform="translate(-57.185024,-399.5)">
    <g
       id="g634">
      <g
         id="g632">
        <g
           id="g630">
          <g
             transform="translate(-546.20001,42.962504)"
             id="g628">
            <path
               transform="scale(0.0119,-0.0119)"
               d=""
               stroke="#000000"
               stroke-opacity="1"
               stroke-width="8"
               fill="#000000"
               fill-opacity="1"
               id="path626" />
          </g>
        </g>
      </g>
    </g>
  </g>
  <g
     id="g740"
     style="font-family:Asana-Math, Asana"
     transform="translate(-57.185024,-399.5)">
    <g
       id="g738">
      <g
         id="g736">
        <g
           id="g734">
          <g
             transform="translate(-546.20001,422.96252)"
             id="g732">
            <path
               transform="scale(0.0119,-0.0119)"
               d=""
               stroke="#000000"
               stroke-opacity="1"
               stroke-width="8"
               fill="#000000"
               fill-opacity="1"
               id="path730" />
          </g>
        </g>
      </g>
    </g>
  </g>
  <g
     id="g780"
     style="font-family:Asana-Math, Asana"
     transform="translate(-57.185024,-399.5)">
    <g
       id="g778">
      <g
         id="g776">
        <g
           id="g774">
          <g
             transform="translate(-546.20001,422.96252)"
             id="g772">
            <path
               transform="scale(0.0119,-0.0119)"
               d=""
               stroke="#000000"
               stroke-opacity="1"
               stroke-width="8"
               fill="#000000"
               fill-opacity="1"
               id="path770" />
          </g>
        </g>
      </g>
    </g>
  </g>
  <g
     id="g820"
     style="font-family:Asana-Math, Asana"
     transform="translate(-57.185024,-399.5)">
    <g
       id="g818">
      <g
         id="g816">
        <g
           id="g814">
          <g
             transform="translate(-546.20001,422.96252)"
             id="g812">
            <path
               transform="scale(0.0119,-0.0119)"
               d=""
               stroke="#000000"
               stroke-opacity="1"
               stroke-width="8"
               fill="#000000"
               fill-opacity="1"
               id="path810" />
          </g>
        </g>
      </g>
    </g>
  </g>
  <g
     id="g860"
     style="font-family:Asana-Math, Asana"
     transform="translate(-57.185024,-399.5)">
    <g
       id="g858">
      <g
         id="g856">
        <g
           id="g854">
          <g
             transform="translate(-546.20001,422.96252)"
             id="g852">
            <path
               transform="scale(0.0119,-0.0119)"
               d=""
               stroke="#000000"
               stroke-opacity="1"
               stroke-width="8"
               fill="#000000"
               fill-opacity="1"
               id="path850" />
          </g>
        </g>
      </g>
    </g>
  </g>
  <g
     id="g4516"
     transform="translate(-57.185024,-399.5)">
    <path
       class="real"
       d="m 226,415.95 c 0,-8.81 7.16,-15.95 16,-15.95 8.84,0 16,7.14 16,15.95 0,8.81 -7.16,15.95 -16,15.95 -8.84,0 -16,-7.14 -16,-15.95 z"
       style="fill:#4a90e2;fill-opacity:0.5;stroke:#d0021b;stroke-width:1;stroke-opacity:1"
       id="path201" />
    <path
       class="real"
       d="m 326,415.95 c 0,-8.81 7.16,-15.95 16,-15.95 8.84,0 16,7.14 16,15.95 0,8.81 -7.16,15.95 -16,15.95 -8.84,0 -16,-7.14 -16,-15.95 z"
       style="fill:#4a90e2;fill-opacity:0.5;stroke:#4a90e2;stroke-width:1;stroke-opacity:1"
       id="path207" />
    <path
       class="real"
       d="m 476,415.95 c 0,-8.81 7.16,-15.95 16,-15.95 8.84,0 16,7.14 16,15.95 0,8.81 -7.16,15.95 -16,15.95 -8.84,0 -16,-7.14 -16,-15.95 z"
       style="fill:#4a90e2;fill-opacity:0.5;stroke:#4a90e2;stroke-width:1;stroke-opacity:1"
       id="path213" />
    <path
       class="real"
       d="m 126,415.95 c 0,-8.81 7.16,-15.95 16,-15.95 8.84,0 16,7.14 16,15.95 0,8.81 -7.16,15.95 -16,15.95 -8.84,0 -16,-7.14 -16,-15.95 z"
       style="fill:#4a90e2;fill-opacity:0.5;stroke:#4a90e2;stroke-width:1;stroke-opacity:1"
       id="path219" />
    <path
       class="connection real"
       stroke-dasharray="none"
       d="m 258,415.95 h 66"
       style="fill:none;fill-opacity:1;stroke:#000000;stroke-width:1"
       id="path225" />
    <path
       d="m 315.07,419.24 q 5.97,-2.84 10.93,-3.29 -4.96,-0.45 -10.93,-3.29"
       id="path227"
       style="fill:none;stroke:#000000;stroke-width:1" />
    <path
       class="connection real"
       stroke-dasharray="none"
       d="m 76,415.95 h 48"
       style="fill:none;fill-opacity:1;stroke:#000000;stroke-width:1"
       id="path233" />
    <path
       d="m 115.07,419.24 q 5.97,-2.84 10.93,-3.29 -4.96,-0.45 -10.93,-3.29"
       id="path235"
       style="fill:none;stroke:#000000;stroke-width:1" />
    <path
       class="connection real"
       stroke-dasharray="none"
       d="m 158,415.95 h 66"
       style="fill:none;fill-opacity:1;stroke:#000000;stroke-width:1"
       id="path241" />
    <path
       d="m 215.07,419.24 q 5.97,-2.84 10.93,-3.29 -4.96,-0.45 -10.93,-3.29"
       id="path243"
       style="fill:none;stroke:#000000;stroke-width:1" />
    <path
       class="connection real"
       stroke-dasharray="none"
       d="m 358,415.95 h 48"
       style="fill:none;fill-opacity:1;stroke:#000000;stroke-width:1"
       id="path249" />
    <path
       d="m 397.07,419.24 q 5.97,-2.84 10.93,-3.29 -4.96,-0.45 -10.93,-3.29"
       id="path251"
       style="fill:none;stroke:#000000;stroke-width:1" />
    <path
       class="connection real"
       stroke-dasharray="none"
       d="m 426,415.95 h 48"
       style="fill:none;fill-opacity:1;stroke:#000000;stroke-width:1"
       id="path257" />
    <path
       d="m 465.07,419.24 q 5.97,-2.84 10.93,-3.29 -4.96,-0.45 -10.93,-3.29"
       id="path259"
       style="fill:none;stroke:#000000;stroke-width:1" />
    <line
       x1="76"
       y1="472.74487"
       x2="512"
       y2="472.74487"
       fill="none"
       stroke="#323232"
       stroke-opacity="1"
       stroke-width="1"
       id="line267"
       style="font-family:Asana-Math, Asana" />
    <line
       x1="108.5256"
       y1="468.74487"
       x2="108.5256"
       y2="476.74487"
       fill="none"
       stroke="#323232"
       stroke-opacity="1"
       stroke-width="1"
       id="line269"
       style="font-family:Asana-Math, Asana" />
    <line
       x1="131.36684"
       y1="468.74487"
       x2="131.36684"
       y2="476.74487"
       fill="none"
       stroke="#323232"
       stroke-opacity="1"
       stroke-width="1"
       id="line271"
       style="font-family:Asana-Math, Asana" />
    <line
       x1="154.20807"
       y1="468.74487"
       x2="154.20807"
       y2="476.74487"
       fill="none"
       stroke="#323232"
       stroke-opacity="1"
       stroke-width="1"
       id="line273"
       style="font-family:Asana-Math, Asana" />
    <line
       x1="177.04932"
       y1="468.74487"
       x2="177.04932"
       y2="476.74487"
       fill="none"
       stroke="#323232"
       stroke-opacity="1"
       stroke-width="1"
       id="line275"
       style="font-family:Asana-Math, Asana" />
    <line
       x1="199.89055"
       y1="468.74487"
       x2="199.89055"
       y2="476.74487"
       fill="none"
       stroke="#323232"
       stroke-opacity="1"
       stroke-width="1"
       id="line277"
       style="font-family:Asana-Math, Asana" />
    <line
       x1="222.73178"
       y1="468.74487"
       x2="222.73178"
       y2="476.74487"
       fill="none"
       stroke="#323232"
       stroke-opacity="1"
       stroke-width="1"
       id="line279"
       style="font-family:Asana-Math, Asana" />
    <line
       x1="245.57301"
       y1="468.74487"
       x2="245.57301"
       y2="476.74487"
       fill="none"
       stroke="#323232"
       stroke-opacity="1"
       stroke-width="1"
       id="line281"
       style="font-family:Asana-Math, Asana" />
    <line
       x1="268.41425"
       y1="468.74487"
       x2="268.41425"
       y2="476.74487"
       fill="none"
       stroke="#323232"
       stroke-opacity="1"
       stroke-width="1"
       id="line283"
       style="font-family:Asana-Math, Asana" />
    <line
       x1="291.25549"
       y1="468.74487"
       x2="291.25549"
       y2="476.74487"
       fill="none"
       stroke="#323232"
       stroke-opacity="1"
       stroke-width="1"
       id="line285"
       style="font-family:Asana-Math, Asana" />
    <line
       x1="314.09674"
       y1="468.74487"
       x2="314.09674"
       y2="476.74487"
       fill="none"
       stroke="#323232"
       stroke-opacity="1"
       stroke-width="1"
       id="line287"
       style="font-family:Asana-Math, Asana" />
    <line
       x1="336.93796"
       y1="468.74487"
       x2="336.93796"
       y2="476.74487"
       fill="none"
       stroke="#323232"
       stroke-opacity="1"
       stroke-width="1"
       id="line289"
       style="font-family:Asana-Math, Asana" />
    <line
       x1="359.77921"
       y1="468.74487"
       x2="359.77921"
       y2="476.74487"
       fill="none"
       stroke="#323232"
       stroke-opacity="1"
       stroke-width="1"
       id="line291"
       style="font-family:Asana-Math, Asana" />
    <line
       x1="382.62042"
       y1="468.74487"
       x2="382.62042"
       y2="476.74487"
       fill="none"
       stroke="#323232"
       stroke-opacity="1"
       stroke-width="1"
       id="line293"
       style="font-family:Asana-Math, Asana" />
    <line
       x1="405.46167"
       y1="468.74487"
       x2="405.46167"
       y2="476.74487"
       fill="none"
       stroke="#323232"
       stroke-opacity="1"
       stroke-width="1"
       id="line295"
       style="font-family:Asana-Math, Asana" />
    <line
       x1="428.30289"
       y1="468.74487"
       x2="428.30289"
       y2="476.74487"
       fill="none"
       stroke="#323232"
       stroke-opacity="1"
       stroke-width="1"
       id="line297"
       style="font-family:Asana-Math, Asana" />
    <line
       x1="451.14413"
       y1="468.74487"
       x2="451.14413"
       y2="476.74487"
       fill="none"
       stroke="#323232"
       stroke-opacity="1"
       stroke-width="1"
       id="line299"
       style="font-family:Asana-Math, Asana" />
    <line
       x1="473.98538"
       y1="468.74487"
       x2="473.98538"
       y2="476.74487"
       fill="none"
       stroke="#323232"
       stroke-opacity="1"
       stroke-width="1"
       id="line301"
       style="font-family:Asana-Math, Asana" />
    <line
       x1="496.8266"
       y1="468.74487"
       x2="496.8266"
       y2="476.74487"
       fill="none"
       stroke="#323232"
       stroke-opacity="1"
       stroke-width="1"
       id="line303"
       style="font-family:Asana-Math, Asana" />
    <path
       d="m 507,469.14488 8,3.6 -8,3.6 z"
       stroke="none"
       stroke-width="1"
       fill="#323232"
       fill-opacity="1"
       id="path305"
       style="font-family:Asana-Math, Asana" />
    <g
       clip-path="url(#cp0stku122u)"
       id="g316"
       transform="translate(76,441.9)"
       style="fill:none;stroke:#000000">
      <path
         d="m 9.68,8 0.49,0.01 0.49,0.01 0.49,0.03 0.49,0.04 0.49,0.04 0.49,0.06 0.49,0.07 0.49,0.08 0.49,0.09 0.49,0.1 0.49,0.11 0.49,0.11 0.49,0.13 0.49,0.14 0.49,0.15 0.49,0.16 0.49,0.17 0.49,0.18 0.49,0.19 0.49,0.2 0.48,0.21 0.49,0.22 0.49,0.22 0.49,0.24 0.49,0.24 0.49,0.26 0.49,0.26 0.49,0.27 0.49,0.29 0.49,0.28 0.49,0.3 0.49,0.31 0.49,0.31 0.49,0.32 0.49,0.33 0.49,0.34 0.49,0.35 0.49,0.35 0.49,0.36 0.49,0.37 0.49,0.37 0.49,0.38 0.49,0.39 0.48,0.39 0.49,0.4 0.49,0.4 0.49,0.42 0.49,0.41 0.49,0.42 0.49,0.43 0.49,0.43 0.49,0.44 0.49,0.44 0.49,0.45 0.49,0.45 0.49,0.45 0.49,0.46 0.49,0.46 0.49,0.47 0.49,0.47 0.49,0.47 0.49,0.47 0.49,0.48 0.49,0.48 0.49,0.48 0.48,0.48 0.49,0.49 0.49,0.48 0.49,0.49 0.49,0.49 0.49,0.48 0.49,0.49 0.49,0.49 0.49,0.49 0.49,0.49 0.49,0.49 0.49,0.49 0.49,0.49 0.49,0.48 0.49,0.49 0.49,0.48 0.49,0.48 0.49,0.48 0.49,0.48 0.49,0.48 0.49,0.47 0.49,0.47 0.48,0.47 0.49,0.46 0.49,0.46 0.49,0.46 0.49,0.45 0.49,0.45 0.49,0.44 0.49,0.44 0.49,0.44 0.49,0.43 0.49,0.42 0.49,0.42 0.49,0.42 0.49,0.41 0.49,0.4 0.49,0.4 0.49,0.39 0.49,0.38 0.49,0.38 0.49,0.37 0.49,0.36 0.49,0.36 0.49,0.35 0.48,0.34 0.49,0.34 0.49,0.32 0.49,0.32 0.49,0.31 0.49,0.3 0.49,0.3 0.49,0.28 0.49,0.28 0.49,0.27 0.49,0.26 0.49,0.25 0.49,0.24 0.49,0.23 0.49,0.23 0.49,0.21 0.49,0.2 0.49,0.2 0.49,0.18 0.49,0.18 0.49,0.16 0.49,0.16 0.48,0.15 0.49,0.13 0.49,0.13 0.49,0.11 0.49,0.11 0.49,0.09 0.49,0.09 0.49,0.07 0.49,0.06 0.49,0.06 0.49,0.04 0.49,0.03 0.49,0.02 0.49,0.01 0.49,0.01 0.49,-0.01 0.49,-0.02 0.49,-0.04 0.49,-0.04 0.49,-0.05 0.49,-0.06 0.49,-0.07 0.48,-0.08 0.49,-0.1 0.49,-0.1 0.49,-0.11 0.49,-0.13 0.49,-0.13 0.49,-0.15 0.49,-0.15 0.49,-0.16 0.49,-0.18 0.49,-0.18 0.49,-0.19 0.49,-0.21 0.49,-0.21 0.49,-0.22 0.49,-0.23 0.49,-0.24 0.49,-0.25 0.49,-0.26 0.49,-0.27 0.49,-0.27 0.49,-0.29 0.48,-0.29 0.49,-0.3 0.49,-0.31 0.49,-0.32 0.49,-0.32 0.49,-0.34 0.49,-0.34 0.49,-0.34 0.49,-0.36 0.49,-0.36 0.49,-0.37 0.49,-0.38 0.49,-0.38 0.49,-0.39 0.49,-0.4 0.49,-0.4 0.49,-0.41 0.49,-0.41 0.49,-0.42 0.49,-0.42 0.49,-0.43 0.49,-0.44 0.49,-0.44 0.48,-0.44 0.49,-0.45 0.49,-0.45 0.49,-0.46 0.49,-0.46 0.49,-0.46 0.49,-0.47 0.49,-0.47 0.49,-0.47 0.49,-0.47 0.49,-0.48 0.49,-0.48 0.49,-0.48 0.49,-0.48 0.49,-0.49 0.49,-0.49 0.49,-0.48 0.49,-0.49 0.49,-0.49 0.49,-0.49 0.49,-0.49 0.49,-0.49 0.48,-0.49 0.49,-0.49 0.49,-0.49 0.49,-0.48 0.49,-0.49 0.49,-0.48 0.49,-0.49 0.49,-0.48 0.49,-0.48 0.49,-0.47 0.49,-0.48 0.49,-0.47 0.49,-0.47 0.49,-0.46 0.49,-0.47 0.49,-0.45 0.49,-0.46 0.49,-0.45 0.49,-0.45 0.49,-0.44 0.49,-0.44 0.49,-0.43 0.48,-0.43 0.49,-0.42 0.49,-0.42 0.49,-0.41 0.49,-0.41 0.49,-0.4 0.49,-0.39 0.49,-0.39 0.49,-0.38 0.49,-0.38 0.49,-0.36 0.49,-0.36 0.49,-0.36 0.49,-0.34 0.49,-0.34 0.49,-0.33 0.49,-0.33 0.49,-0.31 0.49,-0.31 0.49,-0.3 0.49,-0.29 0.49,-0.28 0.49,-0.28 0.48,-0.26 0.49,-0.26 0.49,-0.24 0.49,-0.24 0.49,-0.23 0.49,-0.22 0.49,-0.21 0.49,-0.2 0.49,-0.19 0.49,-0.18 0.49,-0.17 0.49,-0.16 0.49,-0.15 0.49,-0.14 0.49,-0.14 0.49,-0.12 0.49,-0.11 0.49,-0.1 0.49,-0.09 0.49,-0.08 0.49,-0.07 0.49,-0.06 0.48,-0.05 0.49,-0.03 0.49,-0.03 0.49,-0.02 0.49,-0.01 0.49,0.01 0.49,0.01 0.49,0.03 0.49,0.03 0.49,0.05 0.49,0.05 0.49,0.07 0.49,0.08 0.49,0.08 0.49,0.1 0.49,0.11 0.49,0.12 0.49,0.12 0.49,0.14 0.49,0.15 0.49,0.16 0.49,0.17 0.48,0.17 0.49,0.19 0.49,0.2 0.49,0.2 0.49,0.22 0.49,0.23 0.49,0.23 0.49,0.25 0.49,0.25 0.49,0.26 0.49,0.27 0.49,0.28 0.49,0.29 0.49,0.3 0.49,0.3 0.49,0.31 0.49,0.32 0.49,0.33 0.49,0.34 0.49,0.34 0.49,0.35 0.49,0.36 0.48,0.37 0.49,0.37 0.49,0.38 0.49,0.39 0.49,0.39 0.49,0.4 0.49,0.4 0.49,0.41 0.49,0.42 0.49,0.42 0.49,0.42 0.49,0.43 0.49,0.44 0.49,0.44 0.49,0.45 0.49,0.45 0.49,0.45 0.49,0.46 0.49,0.46 0.49,0.46 0.49,0.47 0.49,0.47 0.49,0.48 0.48,0.47 0.49,0.48 0.49,0.48 0.49,0.48 0.49,0.49 0.49,0.48 0.49,0.49 0.49,0.49 0.49,0.49 0.49,0.49 0.49,0.49 0.49,0.49 0.49,0.48 0.49,0.49 0.49,0.49 0.49,0.49 0.49,0.49 0.49,0.48 0.49,0.49 0.49,0.48 0.49,0.48 0.49,0.48 0.48,0.47 0.49,0.48 0.49,0.47 0.49,0.46 0.49,0.47 0.49,0.46 0.49,0.46 0.49,0.45 0.49,0.45 0.49,0.44 0.49,0.44 0.49,0.44 0.49,0.43 0.49,0.43 0.49,0.42 0.49,0.41 0.49,0.41 0.49,0.41 0.49,0.39 0.49,0.4 0.49,0.38 0.49,0.38 0.48,0.37 0.49,0.37 0.49,0.35 0.49,0.35 0.49,0.35 0.49,0.33 0.49,0.33 0.49,0.32 0.49,0.31 0.49,0.31 0.49,0.29 0.49,0.29 0.49,0.28 0.49,0.27 0.49,0.26 0.49,0.25 0.49,0.24 0.49,0.24 0.49,0.22 0.49,0.22 0.49,0.2 0.49,0.2 0.49,0.19 0.48,0.17 0.49,0.17 0.49,0.16 0.49,0.14 0.49,0.14 0.49,0.13 0.49,0.11 0.49,0.11 0.49,0.1 0.49,0.08 0.49,0.08 0.49,0.06 0.49,0.06 0.49,0.04 0.49,0.04 0.49,0.02 0.49,0.01 0.49,0.01 0.49,-0.01 0.49,-0.02 0.49,-0.03 0.49,-0.04 0.48,-0.05 0.49,-0.06 0.49,-0.07 0.49,-0.08 0.49,-0.09 0.49,-0.1 0.49,-0.12 0.49,-0.12 0.49,-0.13 0.49,-0.14 0.49,-0.16 0.49,-0.16 0.49,-0.17 0.49,-0.18 0.49,-0.19 0.49,-0.2 0.49,-0.22 0.49,-0.22 0.49,-0.22 0.49,-0.24 0.49,-0.25 0.49,-0.26 0.48,-0.26 0.49,-0.28 0.49,-0.28 0.49,-0.29 0.49,-0.3 0.49,-0.31 0.49,-0.32 0.49,-0.32 0.49,-0.33 0.49,-0.34 0.49,-0.35 0.49,-0.35 0.49,-0.37 0.49,-0.36 0.49,-0.38 0.49,-0.38 0.49,-0.39 0.49,-0.39 0.49,-0.41 0.49,-0.4 0.49,-0.41 0.49,-0.42 0.48,-0.43 0.49,-0.42 0.49,-0.44 0.49,-0.44 0.49,-0.44 0.49,-0.45 0.49,-0.45 0.49,-0.45 0.49,-0.46 0.49,-0.47 0.49,-0.46 0.49,-0.47 0.49,-0.47 0.49,-0.48 0.49,-0.47 0.49,-0.48 0.49,-0.49 0.49,-0.48 0.49,-0.48 0.49,-0.49 0.49,-0.49 0.49,-0.48 0.49,-0.49 0.48,-0.49 0.49,-0.49 0.49,-0.49 0.49,-0.49 0.49,-0.49 0.49,-0.49 0.49,-0.49 0.49,-0.48 0.49,-0.49 0.49,-0.48 0.49,-0.48 0.49,-0.48 0.49,-0.48 0.49,-0.47 0.49,-0.48 0.49,-0.46 0.49,-0.47 0.49,-0.46 0.49,-0.46 0.49,-0.46 0.49,-0.45 0.49,-0.45 0.48,-0.44 0.49,-0.44 0.49,-0.43 0.49,-0.43 0.49,-0.43 0.49,-0.41 0.49,-0.42 0.49,-0.4 0.49,-0.41 0.49,-0.39 0.49,-0.39 0.49,-0.38 0.49,-0.38 0.49,-0.37 0.49,-0.36 0.49,-0.35 0.49,-0.35 0.49,-0.34 0.49,-0.33 0.49,-0.33 0.49,-0.31 0.49,-0.31 0.48,-0.3 0.49,-0.29 0.49,-0.29 0.49,-0.27 0.49,-0.27 0.49,-0.26 0.49,-0.24 0.49,-0.24 0.49,-0.23 0.49,-0.22 0.49,-0.22 0.49,-0.2 0.49,-0.19 0.49,-0.18 0.49,-0.17 0.49,-0.17 0.49,-0.15 0.49,-0.14 0.49,-0.14 0.49,-0.12 0.49,-0.11 0.49,-0.1 0.49,-0.09 0.48,-0.09 0.49,-0.07 0.49,-0.06 0.49,-0.05 0.49,-0.04 0.49,-0.03 0.49,-0.02 0.49,-0.01 0.49,0.01 0.49,0.01 0.49,0.02 0.49,0.03 0.49,0.05 0.49,0.05 0.49,0.07 0.49,0.07 0.49,0.09 0.49,0.09 0.49,0.11 0.49,0.12 0.49,0.12 0.49,0.14 0.48,0.15 0.49,0.15 0.49,0.17 0.49,0.17 0.49,0.19 0.49,0.2 0.49,0.2 0.49,0.22 0.49,0.22 0.49,0.23 0.49,0.25 0.49,0.25 0.49,0.26 0.49,0.27 0.49,0.28 0.49,0.28 0.49,0.3 0.49,0.3 0.49,0.31 0.49,0.32 0.49,0.33 0.49,0.33 0.48,0.35 0.49,0.35 0.49,0.36 0.49,0.36 0.49,0.37 0.49,0.38 0.49,0.38 0.49,0.39 0.49,0.4 0.49,0.41 0.49,0.4 0.49,0.42 0.49,0.42 0.49,0.43 0.49,0.43 0.49,0.43 0.49,0.44 0.49,0.45 0.49,0.45 0.49,0.45 0.49,0.46 0.49,0.46 0.48,0.46 0.49,0.47 0.49,0.47 0.49,0.47 0.49,0.48 0.49,0.48 0.49,0.48 0.49,0.48 0.49,0.48 0.49,0.49 0.49,0.48 0.49,0.49 0.49,0.49 0.49,0.49 0.49,0.49 0.49,0.49 0.49,0.49 0.49,0.49 0.49,0.49 0.49,0.48 0.49,0.49 0.49,0.49 0.49,0.48 0.48,0.48 0.49,0.48 0.49,0.48 0.49,0.48 0.49,0.47 0.49,0.47 0.49,0.47 0.49,0.47 0.49,0.46 0.49,0.45 0.49,0.46 0.49,0.45 0.49,0.44 0.49,0.45 0.49,0.43 0.49,0.43 0.49,0.43 0.49,0.42 0.49,0.42 0.49,0.41 0.49,0.4 0.49,0.4 0.48,0.39 0.49,0.39 0.49,0.38 0.49,0.37 0.49,0.37 0.49,0.36 0.49,0.35 0.49,0.34 0.49,0.34 0.49,0.33 0.49,0.32 0.49,0.31 0.49,0.31 0.49,0.3 0.49,0.28 0.49,0.28 0.49,0.28 0.49,0.26 0.49,0.25 0.49,0.25 0.49,0.23 0.49,0.23 0.48,0.21 0.49,0.21 0.49,0.2 0.49,0.19 0.49,0.18 0.49,0.16 0.49,0.16 0.49,0.15 0.49,0.14 0.49,0.13 0.49,0.12 0.49,0.1 0.49,0.1 0.49,0.09 0.49,0.08 0.49,0.06 0.49,0.06 0.49,0.05 0.49,0.03 0.49,0.03 0.49,0.01 0.49,0.01 0.49,-0.01 0.48,-0.02 0.49,-0.02 0.49,-0.04 0.49,-0.05 0.49,-0.06 0.49,-0.07 0.49,-0.08 0.49,-0.09 0.49,-0.1 0.49,-0.11 0.49,-0.12 0.49,-0.13 0.49,-0.14 0.49,-0.15 0.49,-0.16 0.49,-0.17 0.49,-0.18 0.49,-0.19 0.49,-0.2 0.49,-0.21 0.49,-0.22 0.49,-0.23 0.48,-0.24 0.49,-0.24 0.49,-0.26 0.49,-0.26 0.49,-0.27 0.49,-0.29 0.49,-0.29 0.49,-0.29 0.49,-0.31 0.49,-0.32 0.49,-0.32 0.49,-0.33 0.49,-0.34 0.49,-0.34 0.49,-0.36 0.49,-0.36 0.49,-0.37 0.49,-0.37 0.49,-0.38 0.49,-0.39 0.49,-0.39 0.49,-0.4 0.48,-0.41 0.49,-0.41 0.49,-0.42 0.49,-0.42 0.49,-0.43 0.49,-0.43 0.49,-0.44 0.49,-0.44 0.49,-0.45 0.49,-0.45 0.49,-0.45 0.49,-0.46 0.49,-0.46 0.49,-0.47 0.49,-0.47 0.49,-0.47 0.49,-0.47 0.49,-0.48 0.49,-0.48 0.49,-0.48 0.49,-0.48 0.49,-0.49 0.48,-0.48 0.49,-0.49 0.49,-0.49 0.49,-0.49 0.49,-0.49 0.49,-0.49 0.49,-0.48 0.49,-0.49 0.49,-0.49 0.49,-0.49 0.49,-0.49 0.49,-0.49 0.49,-0.48 0.49,-0.48 0.49,-0.49 0.49,-0.48 0.49,-0.47 0.49,-0.48 0.49,-0.47 0.49,-0.47 0.49,-0.47 0.49,-0.46 0.49,-0.46 0.48,-0.46 0.49,-0.45 0.49,-0.45 0.49,-0.44 0.49,-0.44 0.49,-0.44 0.49,-0.42 0.49,-0.43 0.49,-0.42 0.49,-0.41 0.49,-0.41 0.49,-0.4 0.49,-0.4 0.49,-0.39 0.49,-0.38 0.49,-0.38 0.49,-0.37 0.49,-0.36 0.49,-0.36 0.49,-0.35 0.49,-0.34 0.49,-0.33 0.48,-0.33 0.49,-0.31 0.49,-0.31 0.49,-0.31 0.49,-0.29 0.49,-0.28 0.49,-0.28 0.49,-0.27 0.49,-0.26 0.49,-0.25 0.49,-0.24 0.49,-0.23 0.49,-0.22 0.49,-0.21 0.49,-0.21 0.49,-0.19 0.49,-0.18 0.49,-0.18 0.49,-0.16 0.49,-0.16 0.49,-0.14 0.49,-0.14 0.48,-0.12 0.49,-0.11 0.49,-0.11 0.49,-0.09 0.49,-0.08 0.49,-0.08 0.49,-0.06 0.49,-0.05 0.49,-0.04 0.49,-0.03 0.49,-0.02 L 440,8"
         style="stroke:#1f77b4;stroke-width:2;stroke-opacity:1"
         id="path314" />
    </g>
    <rect
       class="real"
       x="77"
       y="442.89999"
       width="438"
       height="68"
       style="fill:none;stroke:none"
       id="rect322" />
    <g
       id="g728"
       style="font-family:Asana-Math, Asana">
      <g
         transform="translate(134,419.95)"
         id="g726">
        <path
           transform="scale(0.017,-0.017)"
           d="M 31,148 C 26,97 20,62 9,16 47,-2 81,-11 116,-11 c 49,0 95,18 146,58 51,40 72,77 72,127 0,54 -32,83 -106,97 l -43,8 c -60,11 -79,28 -79,69 0,53 45,94 102,94 41,0 79,-18 95,-45 v -55 h 23 c 4,35 8,62 19,113 -39,19 -67,27 -100,27 C 193,482 132,452 84,404 58,377 47,352 47,316 47,260 78,228 144,215 l 63,-12 c 44,-8 60,-26 60,-65 C 267,73 221,29 150,29 115,29 84,40 56,64 v 84 z"
           stroke="#000000"
           stroke-opacity="1"
           stroke-width="8"
           fill="#000000"
           fill-opacity="1"
           id="path724" />
      </g>
    </g>
    <g
       id="g752"
       style="font-family:Asana-Math, Asana">
      <g
         id="g750">
        <g
           id="g748">
          <g
             id="g746">
            <g
               transform="translate(142.61249,422.96252)"
               id="g744">
              <path
                 transform="scale(0.0119,-0.0119)"
                 d="m 418,-3 v 30 l -52,3 c -55,3 -65,14 -65,66 V 700 L 60,598 67,548 217,614 V 96 C 217,44 206,33 152,30 L 96,27 V -3 c 154,3 154,3 165,3 31,0 141,-3 157,-3 z"
                 stroke="#000000"
                 stroke-opacity="1"
                 stroke-width="8"
                 fill="#000000"
                 fill-opacity="1"
                 id="path742" />
            </g>
          </g>
        </g>
      </g>
    </g>
    <g
       id="g768"
       style="font-family:Asana-Math, Asana">
      <g
         transform="translate(484.00006,419.95)"
         id="g766">
        <path
           transform="scale(0.017,-0.017)"
           d="M 31,148 C 26,97 20,62 9,16 47,-2 81,-11 116,-11 c 49,0 95,18 146,58 51,40 72,77 72,127 0,54 -32,83 -106,97 l -43,8 c -60,11 -79,28 -79,69 0,53 45,94 102,94 41,0 79,-18 95,-45 v -55 h 23 c 4,35 8,62 19,113 -39,19 -67,27 -100,27 C 193,482 132,452 84,404 58,377 47,352 47,316 47,260 78,228 144,215 l 63,-12 c 44,-8 60,-26 60,-65 C 267,73 221,29 150,29 115,29 84,40 56,64 v 84 z"
           stroke="#000000"
           stroke-opacity="1"
           stroke-width="8"
           fill="#000000"
           fill-opacity="1"
           id="path764" />
      </g>
    </g>
    <g
       id="g792"
       style="font-family:Asana-Math, Asana">
      <g
         id="g790">
        <g
           id="g788">
          <g
             id="g786">
            <g
               transform="translate(492.61249,422.96252)"
               id="g784">
              <path
                 transform="scale(0.0119,-0.0119)"
                 d="M 16,23 V -3 c 187,0 187,3 223,3 36,0 36,-3 229,-3 V 82 C 353,77 307,81 122,77 l 182,193 c 97,103 127,158 127,233 0,115 -78,186 -205,186 -72,0 -121,-20 -170,-70 L 39,483 h 29 l 13,46 c 16,58 52,83 119,83 86,0 141,-54 141,-139 0,-75 -42,-149 -155,-269 z"
                 stroke="#000000"
                 stroke-opacity="1"
                 stroke-width="8"
                 fill="#000000"
                 fill-opacity="1"
                 id="path782" />
            </g>
          </g>
        </g>
      </g>
    </g>
    <g
       id="g808"
       style="font-family:Asana-Math, Asana">
      <g
         transform="translate(334.5,419.95)"
         id="g806">
        <path
           transform="scale(0.017,-0.017)"
           d="M 31,148 C 26,97 20,62 9,16 47,-2 81,-11 116,-11 c 49,0 95,18 146,58 51,40 72,77 72,127 0,54 -32,83 -106,97 l -43,8 c -60,11 -79,28 -79,69 0,53 45,94 102,94 41,0 79,-18 95,-45 v -55 h 23 c 4,35 8,62 19,113 -39,19 -67,27 -100,27 C 193,482 132,452 84,404 58,377 47,352 47,316 47,260 78,228 144,215 l 63,-12 c 44,-8 60,-26 60,-65 C 267,73 221,29 150,29 115,29 84,40 56,64 v 84 z"
           stroke="#000000"
           stroke-opacity="1"
           stroke-width="8"
           fill="#000000"
           fill-opacity="1"
           id="path804" />
      </g>
    </g>
    <g
       id="g832"
       style="font-family:Asana-Math, Asana">
      <g
         id="g830">
        <g
           id="g828">
          <g
             id="g826">
            <g
               transform="translate(343.11249,422.96252)"
               id="g824">
              <path
                 transform="scale(0.0119,-0.0119)"
                 d="m 418,-3 v 30 l -52,3 c -55,3 -65,14 -65,66 V 700 L 60,598 67,548 217,614 V 96 C 217,44 206,33 152,30 L 96,27 V -3 c 154,3 154,3 165,3 31,0 141,-3 157,-3 z"
                 stroke="#000000"
                 stroke-opacity="1"
                 stroke-width="8"
                 fill="#000000"
                 fill-opacity="1"
                 id="path822" />
            </g>
          </g>
        </g>
      </g>
    </g>
    <g
       id="g848"
       style="font-family:Asana-Math, Asana">
      <g
         transform="translate(234.5,419.95)"
         id="g846">
        <path
           transform="scale(0.017,-0.017)"
           d="M 31,148 C 26,97 20,62 9,16 47,-2 81,-11 116,-11 c 49,0 95,18 146,58 51,40 72,77 72,127 0,54 -32,83 -106,97 l -43,8 c -60,11 -79,28 -79,69 0,53 45,94 102,94 41,0 79,-18 95,-45 v -55 h 23 c 4,35 8,62 19,113 -39,19 -67,27 -100,27 C 193,482 132,452 84,404 58,377 47,352 47,316 47,260 78,228 144,215 l 63,-12 c 44,-8 60,-26 60,-65 C 267,73 221,29 150,29 115,29 84,40 56,64 v 84 z"
           stroke="#000000"
           stroke-opacity="1"
           stroke-width="8"
           fill="#000000"
           fill-opacity="1"
           id="path844" />
      </g>
    </g>
    <g
       id="g872"
       style="font-family:Asana-Math, Asana">
      <g
         id="g870">
        <g
           id="g868">
          <g
             id="g866">
            <g
               transform="translate(243.11249,422.96252)"
               id="g864">
              <path
                 transform="scale(0.0119,-0.0119)"
                 d="M 263,689 C 108,689 29,566 29,324 29,207 50,106 85,57 c 35,-49 91,-77 153,-77 151,0 227,130 227,386 0,219 -65,323 -202,323 z M 245,654 C 342,654 381,556 381,316 381,103 343,15 251,15 154,15 113,116 113,360 c 0,211 37,294 132,294 z"
                 stroke="#000000"
                 stroke-opacity="1"
                 stroke-width="8"
                 fill="#000000"
                 fill-opacity="1"
                 id="path862" />
            </g>
          </g>
        </g>
      </g>
    </g>
    <g
       id="g888"
       style="font-family:Asana-Math, Asana">
      <g
         transform="translate(55.400024,477.90001)"
         id="g886">
        <path
           transform="scale(0.017,-0.017)"
           d="m 499,116 c -30,0 -57,-28 -57,-58 0,-30 27,-58 56,-58 32,0 60,27 60,58 0,30 -28,58 -59,58 z m -333,0 c -30,0 -57,-28 -57,-58 0,-30 27,-58 56,-58 32,0 60,27 60,58 0,30 -28,58 -59,58 z m 666,0 c -30,0 -57,-28 -57,-58 0,-30 27,-58 56,-58 32,0 60,27 60,58 0,30 -28,58 -59,58 z"
           stroke="#000000"
           stroke-opacity="1"
           stroke-width="8"
           fill="#000000"
           fill-opacity="1"
           id="path884" />
      </g>
    </g>
    <g
       id="g904"
       style="font-family:Asana-Math, Asana">
      <g
         transform="translate(55.400024,421.95)"
         id="g902">
        <path
           transform="scale(0.017,-0.017)"
           d="m 499,116 c -30,0 -57,-28 -57,-58 0,-30 27,-58 56,-58 32,0 60,27 60,58 0,30 -28,58 -59,58 z m -333,0 c -30,0 -57,-28 -57,-58 0,-30 27,-58 56,-58 32,0 60,27 60,58 0,30 -28,58 -59,58 z m 666,0 c -30,0 -57,-28 -57,-58 0,-30 27,-58 56,-58 32,0 60,27 60,58 0,30 -28,58 -59,58 z"
           stroke="#000000"
           stroke-opacity="1"
           stroke-width="8"
           fill="#000000"
           fill-opacity="1"
           id="path900" />
      </g>
    </g>
    <g
       id="g920"
       style="font-family:Asana-Math, Asana">
      <g
         transform="translate(408.40002,421.95)"
         id="g918">
        <path
           transform="scale(0.017,-0.017)"
           d="m 499,116 c -30,0 -57,-28 -57,-58 0,-30 27,-58 56,-58 32,0 60,27 60,58 0,30 -28,58 -59,58 z m -333,0 c -30,0 -57,-28 -57,-58 0,-30 27,-58 56,-58 32,0 60,27 60,58 0,30 -28,58 -59,58 z m 666,0 c -30,0 -57,-28 -57,-58 0,-30 27,-58 56,-58 32,0 60,27 60,58 0,30 -28,58 -59,58 z"
           stroke="#000000"
           stroke-opacity="1"
           stroke-width="8"
           fill="#000000"
           fill-opacity="1"
           id="path916" />
      </g>
    </g>
  </g>
</svg>
